<?xml version="1.0" encoding="utf-8"?>
<svg version="1.1" xmlns:xlink="http://www.w3.org/1999/xlink" width="1880px" height="1080px" xmlns="http://www.w3.org/2000/svg">
  <g transform="matrix(1 0 0 1 0 -251 )">
    <path d="M 0 251  L 1880 251  L 1880 1331  L 0 1331  L 0 251  " fill-rule="nonzero" fill="#cccccc" stroke="none" />
    <path d="M 76 327  L 1804 327  L 1804 1255  L 76 1255  L 76 327  " fill-rule="nonzero" fill="#ffffff" stroke="none" />
    <path d="M 1058.6 575  C 1013.24 575  977.6 539.36  977.6 494  C 977.6 448.64  1013.24 413  1058.6 413  C 1103.9599999999998 413  1139.6 448.64  1139.6 494  C 1139.6 539.36  1103.9599999999998 575  1058.6 575  " fill-rule="nonzero" fill="#cccccc" stroke="none" />
    <path d="M 103 1228  L 103 747.3  L 521.5 528.8  L 1107.4 926.7489361702128  L 1442.2 659.9  L 1777 926.7489361702128  L 1777 1228  L 103 1228  " fill-rule="nonzero" fill="#169bd5" stroke="none" />
  </g>
</svg>