<?xml version="1.0" encoding="utf-8"?>
<svg version="1.1" xmlns:xlink="http://www.w3.org/1999/xlink" width="717px" height="406px" xmlns="http://www.w3.org/2000/svg">
  <g transform="matrix(1 0 0 1 0 -1331 )">
    <path d="M 0 1331  L 717 1331  L 717 1737  L 0 1737  L 0 1331  " fill-rule="nonzero" fill="#cccccc" stroke="none" />
    <path d="M 28 1359  L 689 1359  L 689 1709  L 28 1709  L 28 1359  " fill-rule="nonzero" fill="#ffffff" stroke="none" />
    <path d="M 403.29 1452.8000000000002  C 386.238 1452.8000000000002  372.84000000000003 1439.4020000000003  372.84000000000003 1422.3500000000001  C 372.84000000000003 1405.298  386.238 1391.9  403.29 1391.9  C 420.34200000000004 1391.9  433.74 1405.298  433.74 1422.3500000000001  C 433.74 1439.4020000000003  420.34200000000004 1452.8000000000002  403.29 1452.8000000000002  " fill-rule="nonzero" fill="#cccccc" stroke="none" />
    <path d="M 38 1699  L 38 1517.5  L 198.25 1435  L 422.59999999999997 1586.8828451882846  L 550.8000000000001 1484.5  L 679 1586.8828451882846  L 679 1699  L 38 1699  " fill-rule="nonzero" fill="#169bd5" stroke="none" />
  </g>
</svg>