<?xml version="1.0" encoding="utf-8"?>
<svg version="1.1" xmlns:xlink="http://www.w3.org/1999/xlink" width="1880px" height="1057px" xmlns="http://www.w3.org/2000/svg">
  <g transform="matrix(1 0 0 1 0 -1440 )">
    <path d="M 0 1440  L 1880 1440  L 1880 2497  L 0 2497  L 0 1440  " fill-rule="nonzero" fill="#cccccc" stroke="none" />
    <path d="M 74 1514  L 1806 1514  L 1806 2423  L 74 2423  L 74 1514  " fill-rule="nonzero" fill="#ffffff" stroke="none" />
    <path d="M 1056.875 1757.1  C 1012.481 1757.1  977.6 1722.2189999999998  977.6 1677.8249999999998  C 977.6 1633.4309999999998  1012.481 1598.55  1056.875 1598.55  C 1101.269 1598.55  1136.15 1633.4309999999998  1136.15 1677.8249999999998  C 1136.15 1722.2189999999998  1101.269 1757.1  1056.875 1757.1  " fill-rule="nonzero" fill="#cccccc" stroke="none" />
    <path d="M 101 2397  L 101 1926.2  L 520.75 1712.1999999999998  L 1108.4 2108.236595744681  L 1444.2 1840.6  L 1780 2108.236595744681  L 1780 2397  L 101 2397  " fill-rule="nonzero" fill="#169bd5" stroke="none" />
  </g>
</svg>