<?xml version="1.0" encoding="utf-8"?>
<svg version="1.1" xmlns:xlink="http://www.w3.org/1999/xlink" width="855px" height="313px" xmlns="http://www.w3.org/2000/svg">
  <defs>
    <filter x="515px" y="262px" width="855px" height="313px" filterUnits="userSpaceOnUse" id="filter41">
      <feOffset dx="3" dy="3" in="SourceAlpha" result="shadowOffsetInner" />
      <feGaussianBlur stdDeviation="1" in="shadowOffsetInner" result="shadowGaussian" />
      <feComposite in2="shadowGaussian" operator="atop" in="SourceAlpha" result="shadowComposite" />
      <feColorMatrix type="matrix" values="0 0 0 0 0  0 0 0 0 0  0 0 0 0 0  0 0 0 0.34901960784313724 0  " in="shadowComposite" />
    </filter>
    <g id="widget42">
      <path d="M 515 262  L 1365 262  L 1365 570  L 515 570  L 515 262  " fill-rule="nonzero" fill="#cccccc" stroke="none" />
      <path d="M 537 284  L 1343 284  L 1343 548  L 537 548  L 537 284  " fill-rule="nonzero" fill="#ffffff" stroke="none" />
      <path d="M 980.1 354.4  C 967.164 354.4  957 344.236  957 331.29999999999995  C 957 318.364  967.164 308.2  980.1 308.2  C 993.0360000000001 308.2  1003.2 318.364  1003.2 331.29999999999995  C 1003.2 344.236  993.0360000000001 354.4  980.1 354.4  " fill-rule="nonzero" fill="#cccccc" stroke="none" />
      <path d="M 545 541  L 545 404.04999999999995  L 742.75 341.79999999999995  L 1019.5999999999999 486.8644705882353  L 1177.8000000000002 379.15  L 1336 486.8644705882353  L 1336 541  L 545 541  " fill-rule="nonzero" fill="#169bd5" stroke="none" />
    </g>
  </defs>
  <g transform="matrix(1 0 0 1 -515 -262 )">
    <use xlink:href="#widget42" filter="url(#filter41)" />
    <use xlink:href="#widget42" />
  </g>
</svg>